Coordinates
version=1
nRows=17
nColumns=34
inDegrees=yes

Units are S.I. units (second, meters, Newtons, ...)
If the header above contains a line with 'inDegrees', this indicates whether rotational values are in degrees (yes) or radians (no).

endheader
time	pelvis_tilt	pelvis_list	pelvis_rotation	pelvis_tx	pelvis_ty	pelvis_tz	hip_flexion_r	hip_adduction_r	hip_rotation_r	knee_angle_r	ankle_angle_r	subtalar_angle_r	mtp_angle_r	hip_flexion_l	hip_adduction_l	hip_rotation_l	knee_angle_l	ankle_angle_l	subtalar_angle_l	mtp_angle_l	lumbar_extension	lumbar_bending	lumbar_rotation	arm_flex_r	arm_add_r	arm_rot_r	elbow_flex_r	pro_sup_r	arm_flex_l	arm_add_l	arm_rot_l	elbow_flex_l	pro_sup_l
      2.26666670	     -5.20476809	     -0.46583702	     -1.03588108	      1.65563076	      0.83855401	     -0.02086600	      8.99444828	     -1.95893731	     -3.97274790	      9.65055933	      7.30569359	    -15.93251440	      0.00000000	      9.81067783	     -5.17848525	     -3.24457166	     13.95970238	      9.76550653	     -6.61203969	      0.00000000	     -6.13903763	      1.23735323	      0.95075353	      6.74259135	     -9.83458583	     35.27133071	     89.63752013	     85.76887855	      7.92054716	     -8.92564052	     27.19552849	     75.36474167	     84.05046683
      2.28333330	     -5.58743761	     -0.46371073	     -1.01176882	      1.65378540	      0.83908894	     -0.02272747	      9.88337513	     -2.11584119	     -4.15270247	     10.33635907	      7.42932055	    -16.10043413	      0.00000000	     10.90072283	     -5.15478579	     -3.34261001	     15.03778182	     10.09017310	     -6.83523857	      0.00000000	     -6.25765422	      1.15050826	      0.96372477	      6.79460198	     -9.79072457	     35.40183685	     89.91004768	     85.69961550	      8.18893959	     -8.83149208	     26.91019528	     75.41304928	     84.03664200
      2.30000000	     -5.67063647	     -0.46627985	     -0.94881573	      1.65317250	      0.84008116	     -0.02492262	     10.04228152	     -2.24345536	     -4.10317418	     10.37193615	      7.38902457	    -16.05888009	      0.00000000	     11.13285427	     -5.04971951	     -3.39079632	     15.17058899	     10.07136709	     -6.83762831	      0.00000000	     -6.54542996	      1.19335240	      0.92576786	      6.57931946	     -9.82619211	     35.47458235	     89.85890154	     85.69263722	      8.08711768	     -8.83796653	     26.90971221	     75.35751167	     84.03595931
      2.31666670	     -5.79377822	     -0.44408167	     -0.93633171	      1.65284896	      0.84027431	     -0.02724375	     10.31184304	     -2.41990381	     -4.13476859	     10.46024390	      7.32296710	    -16.02131102	      0.00000000	     11.45739596	     -4.90024883	     -3.45715520	     15.40855298	     10.06829090	     -6.84492621	      0.00000000	     -6.89141170	      1.18276215	      0.85359652	      6.38597257	     -9.83289745	     35.54762007	     89.82564047	     85.68298974	      8.09799248	     -8.80471151	     26.87443172	     75.32466460	     84.03319495
      2.33333330	     -6.72448526	     -0.39382303	     -0.75839243	      1.65265434	      0.83820471	     -0.03007572	     11.84348409	     -2.73205914	     -4.52595372	     11.34317127	      7.53928496	    -15.87120409	      0.00000000	     13.02982672	     -4.71735465	     -3.37595408	     16.27893410	     10.50811634	     -6.76453234	      0.00000000	     -6.10226326	      1.02588108	      0.73890564	      5.97052226	     -9.92453504	     35.57340856	     90.30472922	     85.52318557	      7.91069762	     -8.61405492	     26.45044153	     75.45318482	     84.02403184
      2.35000000	     -6.81171990	     -0.40937643	     -0.73783989	      1.65279129	      0.83772091	     -0.03321212	     11.98243133	     -2.90696583	     -4.53999086	     11.34652652	      7.48363108	    -15.83617169	      0.00000000	     13.19068834	     -4.56507196	     -3.47454513	     16.32012903	     10.51180647	     -6.78450547	      0.00000000	     -6.41759652	      1.08046665	      0.67337948	      5.83895116	     -9.93745814	     35.60642816	     90.23127829	     85.51473934	      7.88954599	     -8.58766989	     26.45549979	     75.40691724	     84.02455719
      2.36666670	     -6.87570760	     -0.38709181	     -0.74776206	      1.65216136	      0.83762604	     -0.03675823	     12.20136738	     -3.18308735	     -4.62274063	     11.52158054	      7.36004424	    -15.79222281	      0.00000000	     13.36164936	     -4.33937100	     -3.58584730	     16.44840738	     10.54978454	     -6.80796608	      0.00000000	     -6.76203425	      1.10947228	      0.50688488	      5.68428453	     -9.97549524	     35.62904426	     90.15240454	     85.50311761	      7.92589115	     -8.48565542	     26.46668491	     75.36362747	     84.02548080
      2.38333330	     -6.95986981	     -0.25741585	     -0.66065558	      1.65055357	      0.83769941	     -0.04014521	     12.74976704	     -3.68547602	     -5.09104995	     12.28007640	      7.10542200	    -15.74662952	      0.00000000	     13.68274657	     -3.96227727	     -3.63972342	     16.71772384	     10.75752104	     -6.80369906	      0.00000000	     -7.05236247	      0.81986180	      0.31876010	      5.76581675	     -9.93592474	     35.55517344	     90.14129968	     85.45881334	      8.13172931	     -8.31775593	     26.38758223	     75.25246434	     84.02465332
      2.40000000	     -7.49751293	     -0.17505032	     -0.59149074	      1.64938219	      0.83686485	     -0.04295430	     13.71247832	     -4.12478539	     -5.47457980	     12.88163183	      7.46146690	    -15.37886629	      0.00000000	     14.38966557	     -3.60935112	     -3.62747852	     16.83066732	     11.03237514	     -6.67062157	      0.00000000	     -6.72957725	      0.70161442	      0.05503056	      5.56154783	     -9.90514310	     35.39609167	     89.99111561	     85.26938030	      8.18302522	     -8.14724552	     26.24160157	     74.76535044	     84.05175023
      2.41666670	     -7.57014104	     -0.20537656	     -0.66273541	      1.64805679	      0.83608126	     -0.04501144	     14.15128855	     -4.37779174	     -5.74570774	     13.36917365	      7.21550995	    -15.28064089	      0.00000000	     14.43244002	     -3.40346607	     -3.68940285	     16.67424548	     11.13090655	     -6.69552649	      0.00000000	     -7.08419926	      0.76843654	     -0.07720309	      5.66611494	     -9.94687223	     35.30518138	     89.86899330	     85.22924272	      8.29378666	     -8.00755577	     26.27561635	     74.65827903	     84.06270574
      2.43333330	     -7.67432515	     -0.20451316	     -0.72507261	      1.64656319	      0.83471672	     -0.04694099	     14.72350842	     -4.66298535	     -6.01202692	     14.02143116	      7.12001067	    -15.19691016	      0.00000000	     14.50681121	     -3.16409345	     -3.69737080	     16.48008284	     11.22978374	     -6.71236067	      0.00000000	     -7.45675341	      0.75253225	     -0.25627897	      5.82215582	     -9.92998133	     35.20089770	     89.70445859	     85.18561472	      8.51275158	     -7.89513205	     26.29578541	     74.47711362	     84.07646493
      2.45000000	     -7.94614589	     -0.09965860	     -0.80245784	      1.64497725	      0.83391626	     -0.04888378	     15.59748381	     -5.06028959	     -6.26058325	     14.90361759	      7.56202767	    -14.83277579	      0.00000000	     14.80214205	     -2.83258872	     -3.71338885	     16.32821818	     11.24375275	     -6.86065946	      0.00000000	     -7.59477523	      0.52208687	     -0.44310720	      6.00653323	     -9.77900785	     35.05694518	     89.14542631	     85.06382261	      8.84615395	     -7.80439436	     26.40423386	     73.91821256	     84.13558548
      2.46666670	     -8.06968610	     -0.26169153	     -0.94267563	      1.64344291	      0.83316233	     -0.05092563	     16.27161016	     -5.14491117	     -6.47304099	     15.68257876	      7.44939028	    -14.68265894	      0.00000000	     14.85373078	     -2.81495541	     -3.61510242	     16.06401167	     11.30474015	     -6.89848179	      0.00000000	     -7.98725770	      0.75544545	     -0.55374429	      6.26984801	     -9.78119225	     34.89930310	     88.91284801	     85.02127569	      9.02538501	     -7.66705326	     26.49310743	     73.76273966	     84.16045379
      2.48333330	     -8.19141276	     -0.36929873	     -1.07988953	      1.64125745	      0.83178871	     -0.05274465	     17.09668302	     -5.31567589	     -6.69187303	     16.75280993	      7.50489589	    -14.58097073	      0.00000000	     15.05291146	     -2.77026122	     -3.55845418	     16.03286185	     11.37997003	     -7.02752744	      0.00000000	     -8.49168888	      0.90298039	     -0.71998048	      6.63920506	     -9.73152295	     34.69672330	     88.59850467	     84.97785054	      9.37587355	     -7.50978687	     26.58344822	     73.59160370	     84.19036846
      2.50000000	     -8.98598706	     -0.30539978	     -1.25376590	      1.63897817	      0.82866111	     -0.05394891	     18.96155149	     -5.72395944	     -7.05563896	     18.42233438	      8.73613417	    -13.55747660	      0.00000000	     16.20018278	     -2.57264126	     -3.29816886	     16.40386855	     11.40919487	     -7.86619766	      0.00000000	     -8.02477933	      0.72798892	     -0.79579701	      6.88725488	     -9.40378442	     34.38596910	     87.41585320	     84.79288223	      9.76765988	     -7.54112171	     27.24632640	     72.88590832	     84.41205848
      2.51666670	     -9.44054102	     -0.41474210	     -1.35626382	      1.63650778	      0.82632602	     -0.05496573	     20.42027162	     -5.95816744	     -7.43802185	     20.05522278	      9.38643860	    -12.96170162	      0.00000000	     17.14122082	     -2.59961021	     -3.13611967	     17.06120474	     11.55197809	     -8.41737730	      0.00000000	     -8.23789628	      0.85601863	     -0.90632029	      7.29296948	     -9.28706847	     34.02009560	     87.16417475	     84.64809267	     10.32375728	     -7.44669687	     27.61648346	     72.65636734	     84.60823198
      2.53333330	    -10.06981896	     -0.47262808	     -1.47717161	      1.63418234	      0.82481157	     -0.05566240	     22.11318574	     -6.22218314	     -7.73392785	     21.81046280	     10.16655514	    -12.07954737	      0.00000000	     18.39377009	     -2.64278129	     -3.11760591	     17.93116526	     11.57049021	     -8.96155397	      0.00000000	     -8.29800278	      0.93065497	     -0.95145453	      7.64163425	     -9.11468399	     33.50898238	     86.95265530	     84.50111566	     10.91603629	     -7.39972451	     27.98891281	     72.56608051	     84.86238297
